# xmcd
#
# Track frame offsets: 
#        150
#        33334
#        51741
#        93249
#        116863
#        152301
#        200609
#        248864
#
# Disc length: 3920 seconds
#
# Revision: 5
# Processed by: cddbd v1.5.2PL0 Copyright (c) Steve Scherf et al.
# Submitted via: ExactAudioCopyFreeDBPlugin 1.0
#
DISCID=690f4e08
DTITLE=Joe Bonamassa - Live From The Royal Albert Hall [CD2]
DYEAR=2009
DGENRE=Blues Rock
TTITLE0=Happier Times
TTITLE1=Your Funeral My Trial
TTITLE2=Blues Deluxe
TTITLE3=Story Of A Quarryman
TTITLE4=The Great Flood
TTITLE5=Just Got Paid
TTITLE6=Mountain Time
TTITLE7=Asking Around For You
EXTD=2CD 2009 - CD 2/2\nJ&R Adventures - Provogue - PRD 7274-2\n
EXTT0=
EXTT1=
EXTT2=
EXTT3=
EXTT4=
EXTT5=
EXTT6=
EXTT7=
PLAYORDER=
